:SAMPLES-PER-SECOND 30
:FULLY-SPECIFIED
:DEGREES
149
root  -63.0869 35.1271 3.59794 -176.9 -80.9864 -163.757
RightUpLeg  -61.4911 -5.43228 6.08057
RightLeg  52.7635 1.19018 1.29538
RightFoot  -4.95428 0.10348 -2.46093
RightToes  -8.73116e-010 0 -3.6325e-017
Spine  83.6508 -6.78357 9.8328
Spine1  -7.87577 3.60132 -7.99546
HEad  -38.4772 -10.5784 7.32404
LeftShoulder1  0.74821 -14.1124 4.7928
LeftArm  -58.7983 -64.9993 -17.376
LeftForeArm  -14.2109 -16.9599 1.84862
LeftHand  -0.0336464 3.6507 0.849048
RightShoulder  0.728865 3.86372 1.6549
RightArm  -81.6371 67.3808 -40.5715
RightForeArm  -30.6477 -0.496646 -2.32705
RightHand  0.0870679 10.0392 0.246316
LeftUpLeg  -62.2274 10.731 0.444738
LeftLeg  53.3939 -6.79086 -9.25108
LeftFoot  -6.46827 -0.249101 6.76049
LeftToes  -5.63919e-011 3.32596e-011 1.92487e-011
150
root  -63.1019 35.5186 3.95971 -176.876 -80.1275 -164.154
RightUpLeg  -59.5462 -5.24916 5.4586
RightLeg  49.9113 1.50517 1.548
RightFoot  -4.29926 0.0547556 -1.34719
RightToes  -8.73116e-010 0 -3.6325e-017
Spine  82.1107 -6.60882 10.13
Spine1  -5.41901 3.81575 -6.72313
HEad  -40.1195 -11.622 6.92683
LeftShoulder1  0.895888 -13.759 3.72218
LeftArm  -61.1462 -63.4508 -18.6093
LeftForeArm  -9.37093 -18.9277 -0.48883
LeftHand  -0.0452133 2.38381 1.24077
RightShoulder  0.774436 3.38266 3.19584
RightArm  -80.5174 67.1313 -40.8025
RightForeArm  -30.2974 3.55652 -1.43846
RightHand  0.142764 10.2006 0.697257
LeftUpLeg  -60.5445 10.4589 0.433774
LeftLeg  51.3982 -6.59393 -8.33874
LeftFoot  -5.70251 -0.293595 6.66091
LeftToes  -5.63919e-011 3.32596e-011 1.92487e-011
151
root  -63.1093 35.9955 4.40598 -175.469 -79.0767 -166.689
RightUpLeg  -56.6065 -5.10785 4.34903
RightLeg  46.5577 2.07232 2.0307
RightFoot  -3.12082 0.0592029 -1.12452
RightToes  -8.73116e-010 0 -3.6325e-017
Spine  82.1433 -7.67625 10.146
Spine1  -5.92335 3.11073 -7.88062
HEad  -38.0541 -9.90816 8.89586
LeftShoulder1  1.26853 -13.8734 1.31027
LeftArm  -62.0156 -60.2946 -22.0621
LeftForeArm  -0.365963 -21.9858 -3.90146
LeftHand  -0.00178364 3.12485 -0.848332
RightShoulder  0.800479 3.02911 4.34426
RightArm  -72.6045 68.1914 -29.1201
RightForeArm  -28.3171 9.81074 -0.907837
RightHand  -0.124216 11.0066 -1.31536
LeftUpLeg  -57.5711 9.84154 0.311162
LeftLeg  48.5885 -6.19783 -7.05242
LeftFoot  -5.03158 -0.276307 5.56324
LeftToes  -5.63919e-011 3.32596e-011 1.92487e-011
152
root  -63.1289 36.3649 4.86904 -172.128 -77.8233 -170.196
RightUpLeg  -54.7454 -3.79276 2.41263
RightLeg  43.2096 2.08491 1.78695
RightFoot  -2.5766 -0.0218814 0.0646666
RightToes  -8.73116e-010 0 -3.6325e-017
Spine  80.2642 -7.98106 10.2537
Spine1  -5.42941 2.67288 -8.11005
HEad  -37.613 -10.1997 8.59188
LeftShoulder1  1.61102 -13.6231 -1.09684
LeftArm  -55.3563 -57.527 -25.3404
LeftForeArm  -1.18533 -24.9183 -5.49094
LeftHand  0.00883441 3.77746 -2.09742
RightShoulder  0.839115 2.79427 5.55872
RightArm  -66.1399 67.6044 -17.5846
RightForeArm  -22.931 15.9434 0.939298
RightHand  -0.0540941 8.93584 -0.834541
LeftUpLeg  -56.0113 8.62845 0.21947
LeftLeg  46.3984 -5.78704 -6.05524
LeftFoot  -4.13607 -0.246825 4.32118
LeftToes  -5.63919e-011 3.32596e-011 1.92487e-011
153
root  -63.1232 36.7195 5.39673 -169.181 -76.2644 -173.775
RightUpLeg  -52.5484 -2.80646 0.520215
RightLeg  39.7903 2.59902 2.04885
RightFoot  -1.52039 -0.040034 0.340449
RightToes  -8.73116e-010 0 -3.6325e-017
Spine  77.86 -7.75003 10.209
Spine1  -3.63111 2.44953 -7.50076
HEad  -38.1551 -10.1457 9.03599
LeftShoulder1  1.84293 -12.956 -3.11286
LeftArm  -50.7242 -55.1443 -29.9202
LeftForeArm  0.517088 -29.1481 -6.29858
LeftHand  0.0316663 2.89473 -2.34428
RightShoulder  0.874168 2.57804 6.75217
RightArm  -62.2446 65.4973 -8.49472
RightForeArm  -16.6283 21.3936 4.31686
RightHand  -0.0624281 10.7596 -0.865157
LeftUpLeg  -53.8382 6.28215 1.11546
LeftLeg  44.3835 -6.64526 -6.51202
LeftFoot  -3.45068 -0.166167 2.71078
LeftToes  -5.63919e-011 3.32596e-011 1.92487e-011
154
root  -63.1147 37.0305 5.99867 -168.634 -74.7155 -175.864
RightUpLeg  -49.8082 -1.46068 -1.45909
RightLeg  36.9525 2.81574 2.00034
RightFoot  -0.0961015 -0.1087 1.09376
RightToes  -8.73116e-010 0 -3.6325e-017
Spine  76.3071 -7.82159 10.6272
Spine1  -3.21298 2.29253 -7.11084
HEad  -37.8836 -11.377 9.01269
LeftShoulder1  2.10823 -12.6105 -5.26154
LeftArm  -44.3519 -52.0297 -35.2594
LeftForeArm  0.812735 -33.2762 -7.33956
LeftHand  0.00550444 2.03998 -0.643251
RightShoulder  0.928552 2.41259 8.23525
RightArm  -52.4992 61.5315 2.62676
RightForeArm  -13.8905 28.31 6.94063
RightHand  -0.103426 10.9345 -1.14244
LeftUpLeg  -50.814 1.74333 3.64966
LeftLeg  43.0252 -9.0789 -8.57953
LeftFoot  -3.24068 -0.0807913 1.40416
LeftToes  -5.63919e-011 3.32596e-011 1.92487e-011
155
root  -63.1708 37.3515 6.74634 -170.087 -72.7198 -176.952
RightUpLeg  -45.8831 -0.476298 -3.11862
RightLeg  33.7717 3.8815 2.54111
RightFoot  1.38567 -0.212183 1.98736
RightToes  -8.73116e-010 0 -3.6325e-017
Spine  74.8987 -8.45625 11.2187
Spine1  -1.92744 1.90053 -7.31631
HEad  -38.243 -11.7557 8.92976
LeftShoulder1  2.42982 -11.9277 -8.24161
LeftArm  -38.4189 -48.7718 -37.5898
LeftForeArm  0.442205 -37.3045 -8.51518
LeftHand  -0.0286904 0.894393 0.671317
RightShoulder  0.961434 2.34185 9.08939
RightArm  -43.7244 56.464 12.3924
RightForeArm  -12.9821 35.8111 8.8284
RightHand  -0.259303 11.5475 -2.2006
LeftUpLeg  -46.8985 -4.15208 6.6938
LeftLeg  41.842 -11.8235 -10.7598
LeftFoot  -4.0663 0.0127209 0.164792
LeftToes  -5.63919e-011 3.32596e-011 1.92487e-011
156
root  -63.2594 37.5212 7.51521 -169.702 -69.8816 -178.483
RightUpLeg  -43.9584 1.17951 -4.92751
RightLeg  31.0818 5.03147 3.02857
RightFoot  2.59397 -0.342089 2.94765
RightToes  -8.73116e-010 0 -3.6325e-017
Spine  72.3169 -8.41819 11.4208
Spine1  -1.30964 1.69872 -8.19844
HEad  -38.7213 -13.1083 7.55476
LeftShoulder1  2.66975 -11.2364 -10.8938
LeftArm  -34.2157 -44.3544 -39.3561
LeftForeArm  2.10802 -42.2494 -10.0427
LeftHand  -0.0129592 0.16046 0.262975
RightShoulder  0.992794 2.21134 10.1203
RightArm  -37.6956 49.9236 21.1755
RightForeArm  -8.9682 43.9153 11.3726
RightHand  -0.212812 11.0333 -1.93497
LeftUpLeg  -44.7213 -9.30942 8.56356
LeftLeg  40.7498 -13.4165 -11.74
LeftFoot  -5.58624 0.0325485 0.103089
LeftToes  -5.63919e-011 3.32596e-011 1.92487e-011
157
root  -63.3792 37.6804 8.35179 -171.383 -66.7788 -178.034
RightUpLeg  -41.7787 2.88105 -6.02118
RightLeg  27.9214 6.60282 3.54812
RightFoot  4.35458 -0.479722 3.68898
RightToes  -8.73116e-010 0 -3.6325e-017
Spine  69.3491 -8.01102 11.6158
Spine1  -0.0568784 1.74796 -8.19525
HEad  -38.0075 -13.0392 7.99905
LeftShoulder1  2.90233 -10.2567 -14.1855
LeftArm  -30.9409 -39.2385 -40.2369
LeftForeArm  3.46931 -47.915 -12.1762
LeftHand  0.0120792 0.0470347 -0.257909
RightShoulder  1.01178 2.18677 10.5569
RightArm  -33.9048 42.9133 27.7327
RightForeArm  -4.4978 51.9731 14.8231
RightHand  -0.316853 10.0286 -2.7677
LeftUpLeg  -42.1902 -12.0727 8.96101
LeftLeg  39.0007 -12.8442 -10.6143
LeftFoot  -6.84703 -0.0357724 1.92281
LeftToes  -5.63919e-011 3.32596e-011 1.92487e-011
158
root  -63.5003 37.9215 9.21759 -170.848 -62.5348 -179.941
RightUpLeg  -39.4789 4.75615 -7.86253
RightLeg  23.7284 8.83597 4.04692
RightFoot  6.55192 -0.744746 5.00449
RightToes  -8.73116e-010 0 -3.6325e-017
Spine  66.2236 -6.71404 10.0696
Spine1  1.94905 1.88091 -8.34492
HEad  -37.4315 -11.8862 8.65242
LeftShoulder1  2.95861 -8.99206 -17.0143
LeftArm  -28.8477 -33.8614 -39.9398
LeftForeArm  4.51226 -53.4715 -14.9435
LeftHand  -0.000847444 -0.690161 0.0424097
RightShoulder  0.979917 1.71096 11.8189
RightArm  -30.7916 37.3778 32.6951
RightForeArm  -0.074265 58.8991 19.0293
RightHand  -0.467547 10.9384 -3.73801
LeftUpLeg  -38.9776 -11.0551 6.3346
LeftLeg  35.9986 -10.1576 -7.4692
LeftFoot  -6.49226 -0.0878971 2.95728
LeftToes  -5.63919e-011 3.32596e-011 1.92487e-011
159
root  -63.625 38.0765 10.1093 -171.933 -58.649 -179.951
RightUpLeg  -37.0882 5.24529 -8.20107
RightLeg  19.1099 12.1834 4.26368
RightFoot  8.58417 -1.1071 6.63136
RightToes  -8.73116e-010 0 -3.6325e-017
Spine  62.6537 -5.53362 8.73912
Spine1  4.079 1.69766 -7.25593
HEad  -37.313 -11.6514 6.6096
LeftShoulder1  2.81512 -7.48995 -19.0928
LeftArm  -28.3868 -27.9559 -39.9706
LeftForeArm  7.24483 -59.4646 -18.8173
LeftHand  -0.0613699 -1.42629 1.1946
RightShoulder  0.852386 0.295703 15.7285
RightArm  -26.6994 35.4196 34.365
RightForeArm  3.56574 63.5214 23.2304
RightHand  -0.485757 9.70225 -4.1332
LeftUpLeg  -37.0364 -8.49438 4.36714
LeftLeg  34.7201 -9.11119 -6.37981
LeftFoot  -5.34839 -0.176498 4.00546
LeftToes  -5.63919e-011 3.32596e-011 1.92487e-011
